<mxfile host="Electron" modified="2024-01-12T17:59:01.979Z" agent="Mozilla/5.0 (Windows NT 10.0; Win64; x64) AppleWebKit/537.36 (KHTML, like Gecko) draw.io/22.1.16 Chrome/120.0.6099.109 Electron/28.1.0 Safari/537.36" etag="j5SBvxdOtqVyeLibX1eV" version="22.1.16" type="device">
  <diagram name="Страница — 1" id="R87gwawpsRX5DZW33Yvw">
    <mxGraphModel dx="418" dy="1228" grid="1" gridSize="10" guides="1" tooltips="1" connect="1" arrows="1" fold="1" page="1" pageScale="1" pageWidth="827" pageHeight="1169" math="0" shadow="0">
      <root>
        <mxCell id="0" />
        <mxCell id="1" parent="0" />
        <mxCell id="hZTHAR6i0K3fFT6IlkUh-64" style="edgeStyle=orthogonalEdgeStyle;rounded=0;orthogonalLoop=1;jettySize=auto;html=1;exitX=0;exitY=1;exitDx=0;exitDy=0;entryX=0;entryY=0.5;entryDx=0;entryDy=0;" edge="1" parent="1" source="hZTHAR6i0K3fFT6IlkUh-69" target="hZTHAR6i0K3fFT6IlkUh-70">
          <mxGeometry relative="1" as="geometry" />
        </mxCell>
        <mxCell id="hZTHAR6i0K3fFT6IlkUh-65" style="edgeStyle=orthogonalEdgeStyle;rounded=0;orthogonalLoop=1;jettySize=auto;html=1;exitX=0;exitY=1;exitDx=0;exitDy=0;entryX=0;entryY=0.5;entryDx=0;entryDy=0;" edge="1" parent="1" source="hZTHAR6i0K3fFT6IlkUh-69" target="hZTHAR6i0K3fFT6IlkUh-71">
          <mxGeometry relative="1" as="geometry" />
        </mxCell>
        <mxCell id="hZTHAR6i0K3fFT6IlkUh-66" style="edgeStyle=orthogonalEdgeStyle;rounded=0;orthogonalLoop=1;jettySize=auto;html=1;exitX=0;exitY=1;exitDx=0;exitDy=0;entryX=0;entryY=0.5;entryDx=0;entryDy=0;" edge="1" parent="1" source="hZTHAR6i0K3fFT6IlkUh-69" target="hZTHAR6i0K3fFT6IlkUh-72">
          <mxGeometry relative="1" as="geometry" />
        </mxCell>
        <mxCell id="hZTHAR6i0K3fFT6IlkUh-67" style="edgeStyle=orthogonalEdgeStyle;rounded=0;orthogonalLoop=1;jettySize=auto;html=1;exitX=0;exitY=1;exitDx=0;exitDy=0;entryX=0;entryY=0.5;entryDx=0;entryDy=0;" edge="1" parent="1" source="hZTHAR6i0K3fFT6IlkUh-69" target="hZTHAR6i0K3fFT6IlkUh-73">
          <mxGeometry relative="1" as="geometry" />
        </mxCell>
        <mxCell id="hZTHAR6i0K3fFT6IlkUh-68" style="edgeStyle=orthogonalEdgeStyle;rounded=0;orthogonalLoop=1;jettySize=auto;html=1;exitX=0;exitY=1;exitDx=0;exitDy=0;entryX=0;entryY=0.5;entryDx=0;entryDy=0;" edge="1" parent="1" source="hZTHAR6i0K3fFT6IlkUh-69" target="hZTHAR6i0K3fFT6IlkUh-74">
          <mxGeometry relative="1" as="geometry" />
        </mxCell>
        <mxCell id="hZTHAR6i0K3fFT6IlkUh-69" value="Массив скиллов" style="rounded=0;whiteSpace=wrap;html=1;" vertex="1" parent="1">
          <mxGeometry x="2068" y="90" width="120" height="60" as="geometry" />
        </mxCell>
        <mxCell id="hZTHAR6i0K3fFT6IlkUh-70" value="урон" style="rounded=0;whiteSpace=wrap;html=1;" vertex="1" parent="1">
          <mxGeometry x="2094" y="170" width="120" height="60" as="geometry" />
        </mxCell>
        <mxCell id="hZTHAR6i0K3fFT6IlkUh-71" value="время отката" style="rounded=0;whiteSpace=wrap;html=1;" vertex="1" parent="1">
          <mxGeometry x="2094" y="250" width="120" height="60" as="geometry" />
        </mxCell>
        <mxCell id="hZTHAR6i0K3fFT6IlkUh-72" value="Иконка" style="rounded=0;whiteSpace=wrap;html=1;" vertex="1" parent="1">
          <mxGeometry x="2094" y="330" width="120" height="60" as="geometry" />
        </mxCell>
        <mxCell id="hZTHAR6i0K3fFT6IlkUh-73" value="Анимация" style="rounded=0;whiteSpace=wrap;html=1;" vertex="1" parent="1">
          <mxGeometry x="2094" y="415" width="120" height="60" as="geometry" />
        </mxCell>
        <mxCell id="hZTHAR6i0K3fFT6IlkUh-74" value="Дистанция" style="rounded=0;whiteSpace=wrap;html=1;" vertex="1" parent="1">
          <mxGeometry x="2094" y="505" width="120" height="60" as="geometry" />
        </mxCell>
      </root>
    </mxGraphModel>
  </diagram>
</mxfile>
